<?xml version="1.0" encoding="UTF-8" standalone="no"?>
<!-- Created with Inkscape (http://www.inkscape.org/) -->

<svg
   xmlns:dc="http://purl.org/dc/elements/1.1/"
   xmlns:cc="http://creativecommons.org/ns#"
   xmlns:rdf="http://www.w3.org/1999/02/22-rdf-syntax-ns#"
   xmlns:svg="http://www.w3.org/2000/svg"
   xmlns="http://www.w3.org/2000/svg"
   xmlns:sodipodi="http://sodipodi.sourceforge.net/DTD/sodipodi-0.dtd"
   xmlns:inkscape="http://www.inkscape.org/namespaces/inkscape"
   version="1.1"
   id="svg1949"
   xml:space="preserve"
   width="938.33789"
   height="447.30057"
   viewBox="0 0 938.33793 447.30057"
   sodipodi:docname="logo-solo-racchette.svg"
   inkscape:version="0.92.2 5c3e80d, 2017-08-06"><metadata
     id="metadata1955"><rdf:RDF><cc:Work
         rdf:about=""><dc:format>image/svg+xml</dc:format><dc:type
           rdf:resource="http://purl.org/dc/dcmitype/StillImage" /><dc:title></dc:title></cc:Work></rdf:RDF></metadata><defs
     id="defs1953" /><sodipodi:namedview
     pagecolor="#000000"
     bordercolor="#666666"
     borderopacity="1"
     objecttolerance="10"
     gridtolerance="10"
     guidetolerance="10"
     inkscape:pageopacity="0"
     inkscape:pageshadow="2"
     inkscape:window-width="2560"
     inkscape:window-height="1347"
     id="namedview1951"
     showgrid="false"
     inkscape:zoom="1.0399158"
     inkscape:cx="497.82829"
     inkscape:cy="205.10818"
     inkscape:window-x="1920"
     inkscape:window-y="1"
     inkscape:window-maximized="1"
     inkscape:current-layer="g1957"
     fit-margin-top="0"
     fit-margin-left="0"
     fit-margin-right="0"
     fit-margin-bottom="0" /><g
     id="g1957"
     inkscape:groupmode="layer"
     inkscape:label="Team Logo"
     transform="matrix(1.3333333,0,0,-1.3333333,-113.61113,638.85912)"><path
       d="m 123.9959,427.5374 c -7.3091,1.9168 -11.91,7.6507 -11.9378,14.8771 -0.0244,6.2456 3.0492,10.9468 9.0638,13.8674 3.3258,1.6151 9.6967,1.6151 13.0232,0 6.0038,-2.9146 9.0774,-7.6105 9.0774,-13.8674 0,-8.2222 -6.031,-14.506 -14.465,-15.0715 -1.7617,-0.118 -3.9044,-0.0307 -4.7616,0.1944 z m -8.2315,-163.1908 c -1.6892,1.8655 -7.2125,13.79 -9.1463,19.7464 -4.8835,15.0355 -4.5819,33.5648 0.7702,47.378 2.9863,7.7074 6.1994,13.8484 8.9756,17.1516 0.5987,0.7126 2.2725,2.7527 3.721,4.5337 6.8854,8.4674 18.1982,15.4213 29.4818,18.1225 5.1307,1.2282 6.2702,1.3192 13.4022,1.0709 8.9337,-0.3107 13.9969,-1.3995 19.7467,-4.2466 9.6996,-4.8033 15.3204,-9.1865 20.9526,-16.3411 3.9702,-5.0426 4.4441,-5.7717 7.6144,-11.7171 2.2147,-4.1524 5.6968,-14.0686 6.7524,-19.2268 1.1894,-5.8127 1.5945,-17.5235 0.8354,-24.1631 -0.707,-6.1942 -2.6884,-13.1315 -6.0191,-21.0818 -2.1974,-5.2444 -2.8885,-6.4094 -6.1563,-10.3748 l -1.4825,-1.8006 h -44.2953 c -42.2144,0 -44.3356,0.0448 -45.1528,0.9488 z m 92.6736,-0.9318 c 0,0.2954 0.8184,1.3558 1.8184,2.3568 1.0004,0.9997 1.8187,2.0157 1.8187,2.2563 0,0.2415 2.28,1.7867 5.0667,3.4362 7.9628,4.7117 11.412,7.338 12.8024,9.7498 2.4619,4.2718 2.5699,6.1526 2.1968,38.565 -0.1896,16.5773 -0.187,31.2775 0.006,32.6673 0.5261,3.782 1.8164,4.212 12.6652,4.2214 4.716,0.003 9.1769,-0.1633 9.9139,-0.3708 2.8454,-0.8013 2.8179,-0.4402 2.8179,-36.5179 v -33.2572 l 1.3436,-2.8579 c 1.9168,-4.077 5.8793,-8.1436 11.9543,-12.2683 5.3229,-3.6156 9.9399,-7.2471 10.2586,-8.0702 0.0961,-0.2469 -16.1099,-0.4473 -36.245,-0.4473 -24.7155,0 -36.4178,0.1726 -36.4178,0.5368 z M 151.6887,163.1004 c -0.7747,0.2333 -2.1138,0.9275 -2.9772,1.5429 l -1.5701,1.1174 -0.1406,33.8902 -0.1409,33.8907 -1.7082,3.4708 c -2.0191,4.0994 -6.2765,8.2301 -11.8023,11.4497 -4.0368,2.3525 -13.2511,9.1981 -13.2511,9.8458 0,0.2271 17.8888,0.4133 39.7525,0.4133 37.5137,0 39.7528,-0.051 39.7528,-0.9096 0,-0.4995 -0.8734,-1.6107 -1.9404,-2.4684 -2.2697,-1.8218 -9.6582,-6.6963 -13.3891,-8.8316 -8.2332,-4.7138 -10.8513,-7.6853 -11.6008,-13.165 -0.2415,-1.7651 -0.2021,-17.2661 0.0881,-34.6507 0.5211,-31.216 0.5174,-31.4674 -0.53,-32.8737 -1.8068,-2.4244 -4.7648,-3.1807 -12.3806,-3.162 -3.7148,0.009 -7.3888,0.2078 -8.1621,0.4413 v -10e-4 z m 83.1512,-18.6795 c -8.1218,1.6504 -13.5904,3.9909 -20.8111,8.9071 -13.7191,9.339 -23.0131,24.3895 -27.2197,44.075 -1.076,5.0338 -1.2342,22.2109 -0.2469,26.7619 1.8601,8.5751 7.7834,23.6982 11.353,28.9894 0.8127,1.2041 1.6345,2.5971 1.8258,3.0954 0.1914,0.4995 1.1152,1.3759 2.0543,1.9485 1.6753,1.0242 2.4639,1.0404 44.0337,0.9128 l 42.328,-0.1301 2.5348,-3.1178 c 2.6694,-3.2831 8.0212,-13.4425 9.1698,-17.4085 0.3722,-1.286 1.0221,-3.2728 1.4448,-4.4169 0.7583,-2.0551 1.1375,-3.8234 2.3431,-10.9123 0.9247,-5.4442 0.7702,-17.2941 -0.3024,-23.1239 -3.5042,-19.0445 -13.1219,-35.2621 -26.9108,-45.3727 -5.7605,-4.2236 -9.7795,-6.2805 -16.8139,-8.5992 -5.724,-1.8879 -6.8114,-2.0758 -13.2512,-2.2921 -5.3966,-0.1803 -8.0572,-0.0227 -11.5313,0.6834"
       style="fill:#ffffff;fill-opacity:1;fill-rule:nonzero;stroke:none"
       id="path1959"
       inkscape:connector-curvature="0" /><path
       d="M 303.196,261.1565 H 89.4603 V 474.8924 H 303.196 Z"
       style="fill:none;stroke:#1a1a18;stroke-width:8.50389957;stroke-linecap:butt;stroke-linejoin:miter;stroke-miterlimit:10.00000191;stroke-dasharray:none;stroke-opacity:1"
       id="path1961"
       inkscape:connector-curvature="0" /><path
       d="m 115.0801,261.1562 h 173.806"
       style="fill:#000000;stroke:#ffffff;stroke-width:8.78709984;stroke-linecap:butt;stroke-linejoin:miter;stroke-miterlimit:10.00000191;stroke-dasharray:none;stroke-opacity:1"
       id="path1963"
       inkscape:connector-curvature="0" /><path
       style="fill:#000000;stroke-width:0.96161634"
       d="m 188.47304,450.75834 c 14.14778,-0.14987 37.29869,-0.14987 51.44647,0 14.14778,0.14988 2.57232,0.2725 -25.72324,0.2725 -28.29556,0 -39.87101,-0.12262 -25.72323,-0.2725 z"
       id="path921"
       inkscape:connector-curvature="0"
       transform="matrix(0.75000002,0,0,-0.75000002,0,595.00012)" /><path
       style="fill:#000000;stroke-width:0.96161634"
       d="M 114.4761,302.90916 V 155.30105 h 147.60811 147.6081 v 147.60811 147.6081 h -12.0202 -12.0202 v -5.28889 -5.28889 h 6.73459 6.73459 L 398.87741,302.66875 398.63373,165.39802 H 261.6034 124.57308 l -0.24369,137.27073 -0.24369,137.27073 h 14.42753 14.42753 v 5.28889 5.28889 H 133.70843 114.4761 Z"
       id="path951"
       inkscape:connector-curvature="0"
       transform="matrix(0.75000002,0,0,-0.75000002,0,595.00012)" /><path
       style="fill:#000000;stroke-width:0.96161634"
       d="m 153.90237,445.22837 v -5.28889 h 115.39396 115.39396 v 5.28889 5.28889 H 269.29633 153.90237 Z"
       id="path953"
       inkscape:connector-curvature="0"
       transform="matrix(0.75000002,0,0,-0.75000002,0,595.00012)" /><path
       style="fill:#ffffff;stroke-width:0.96161634"
       d="M 114.4761,302.90916 V 155.30105 h 147.60811 147.6081 v 147.60811 147.6081 h -12.0202 -12.0202 v -5.28889 -5.28889 h 6.73459 6.73459 L 398.87741,302.66875 398.63373,165.39802 H 261.6034 124.57308 l -0.24369,137.27073 -0.24369,137.27073 h 14.42753 14.42753 v 5.28889 5.28889 H 133.70843 114.4761 Z"
       id="path955"
       inkscape:connector-curvature="0"
       transform="matrix(0.75000002,0,0,-0.75000002,0,595.00012)" /></g></svg>