<?xml version="1.0" encoding="UTF-8" standalone="no"?>
<!-- Created with Inkscape (http://www.inkscape.org/) -->

<svg
   xmlns:dc="http://purl.org/dc/elements/1.1/"
   xmlns:cc="http://creativecommons.org/ns#"
   xmlns:rdf="http://www.w3.org/1999/02/22-rdf-syntax-ns#"
   xmlns:svg="http://www.w3.org/2000/svg"
   xmlns="http://www.w3.org/2000/svg"
   xmlns:sodipodi="http://sodipodi.sourceforge.net/DTD/sodipodi-0.dtd"
   xmlns:inkscape="http://www.inkscape.org/namespaces/inkscape"
   version="1.1"
   id="svg1949"
   xml:space="preserve"
   width="938.33789"
   height="447.30057"
   viewBox="0 0 938.33793 447.30057"
   sodipodi:docname="Team Logo.svg"
   inkscape:version="0.92.4 (unknown)"><metadata
     id="metadata1955"><rdf:RDF><cc:Work
         rdf:about=""><dc:format>image/svg+xml</dc:format><dc:type
           rdf:resource="http://purl.org/dc/dcmitype/StillImage" /><dc:title></dc:title></cc:Work></rdf:RDF></metadata><defs
     id="defs1953" /><sodipodi:namedview
     pagecolor="#000000"
     bordercolor="#666666"
     borderopacity="1"
     objecttolerance="10"
     gridtolerance="10"
     guidetolerance="10"
     inkscape:pageopacity="0"
     inkscape:pageshadow="2"
     inkscape:window-width="1920"
     inkscape:window-height="1016"
     id="namedview1951"
     showgrid="false"
     inkscape:zoom="1.0399158"
     inkscape:cx="497.82829"
     inkscape:cy="205.10818"
     inkscape:window-x="0"
     inkscape:window-y="27"
     inkscape:window-maximized="1"
     inkscape:current-layer="g1957"
     fit-margin-top="0"
     fit-margin-left="0"
     fit-margin-right="0"
     fit-margin-bottom="0" /><g
     id="g1957"
     inkscape:groupmode="layer"
     inkscape:label="Team Logo"
     transform="matrix(1.3333333,0,0,-1.3333333,-113.61113,638.85912)"><path
       d="m 123.9959,427.5374 c -7.3091,1.9168 -11.91,7.6507 -11.9378,14.8771 -0.0244,6.2456 3.0492,10.9468 9.0638,13.8674 3.3258,1.6151 9.6967,1.6151 13.0232,0 6.0038,-2.9146 9.0774,-7.6105 9.0774,-13.8674 0,-8.2222 -6.031,-14.506 -14.465,-15.0715 -1.7617,-0.118 -3.9044,-0.0307 -4.7616,0.1944 z m -8.2315,-163.1908 c -1.6892,1.8655 -7.2125,13.79 -9.1463,19.7464 -4.8835,15.0355 -4.5819,33.5648 0.7702,47.378 2.9863,7.7074 6.1994,13.8484 8.9756,17.1516 0.5987,0.7126 2.2725,2.7527 3.721,4.5337 6.8854,8.4674 18.1982,15.4213 29.4818,18.1225 5.1307,1.2282 6.2702,1.3192 13.4022,1.0709 8.9337,-0.3107 13.9969,-1.3995 19.7467,-4.2466 9.6996,-4.8033 15.3204,-9.1865 20.9526,-16.3411 3.9702,-5.0426 4.4441,-5.7717 7.6144,-11.7171 2.2147,-4.1524 5.6968,-14.0686 6.7524,-19.2268 1.1894,-5.8127 1.5945,-17.5235 0.8354,-24.1631 -0.707,-6.1942 -2.6884,-13.1315 -6.0191,-21.0818 -2.1974,-5.2444 -2.8885,-6.4094 -6.1563,-10.3748 l -1.4825,-1.8006 h -44.2953 c -42.2144,0 -44.3356,0.0448 -45.1528,0.9488 z m 92.6736,-0.9318 c 0,0.2954 0.8184,1.3558 1.8184,2.3568 1.0004,0.9997 1.8187,2.0157 1.8187,2.2563 0,0.2415 2.28,1.7867 5.0667,3.4362 7.9628,4.7117 11.412,7.338 12.8024,9.7498 2.4619,4.2718 2.5699,6.1526 2.1968,38.565 -0.1896,16.5773 -0.187,31.2775 0.006,32.6673 0.5261,3.782 1.8164,4.212 12.6652,4.2214 4.716,0.003 9.1769,-0.1633 9.9139,-0.3708 2.8454,-0.8013 2.8179,-0.4402 2.8179,-36.5179 v -33.2572 l 1.3436,-2.8579 c 1.9168,-4.077 5.8793,-8.1436 11.9543,-12.2683 5.3229,-3.6156 9.9399,-7.2471 10.2586,-8.0702 0.0961,-0.2469 -16.1099,-0.4473 -36.245,-0.4473 -24.7155,0 -36.4178,0.1726 -36.4178,0.5368 z M 151.6887,163.1004 c -0.7747,0.2333 -2.1138,0.9275 -2.9772,1.5429 l -1.5701,1.1174 -0.1406,33.8902 -0.1409,33.8907 -1.7082,3.4708 c -2.0191,4.0994 -6.2765,8.2301 -11.8023,11.4497 -4.0368,2.3525 -13.2511,9.1981 -13.2511,9.8458 0,0.2271 17.8888,0.4133 39.7525,0.4133 37.5137,0 39.7528,-0.051 39.7528,-0.9096 0,-0.4995 -0.8734,-1.6107 -1.9404,-2.4684 -2.2697,-1.8218 -9.6582,-6.6963 -13.3891,-8.8316 -8.2332,-4.7138 -10.8513,-7.6853 -11.6008,-13.165 -0.2415,-1.7651 -0.2021,-17.2661 0.0881,-34.6507 0.5211,-31.216 0.5174,-31.4674 -0.53,-32.8737 -1.8068,-2.4244 -4.7648,-3.1807 -12.3806,-3.162 -3.7148,0.009 -7.3888,0.2078 -8.1621,0.4413 v -10e-4 z m 83.1512,-18.6795 c -8.1218,1.6504 -13.5904,3.9909 -20.8111,8.9071 -13.7191,9.339 -23.0131,24.3895 -27.2197,44.075 -1.076,5.0338 -1.2342,22.2109 -0.2469,26.7619 1.8601,8.5751 7.7834,23.6982 11.353,28.9894 0.8127,1.2041 1.6345,2.5971 1.8258,3.0954 0.1914,0.4995 1.1152,1.3759 2.0543,1.9485 1.6753,1.0242 2.4639,1.0404 44.0337,0.9128 l 42.328,-0.1301 2.5348,-3.1178 c 2.6694,-3.2831 8.0212,-13.4425 9.1698,-17.4085 0.3722,-1.286 1.0221,-3.2728 1.4448,-4.4169 0.7583,-2.0551 1.1375,-3.8234 2.3431,-10.9123 0.9247,-5.4442 0.7702,-17.2941 -0.3024,-23.1239 -3.5042,-19.0445 -13.1219,-35.2621 -26.9108,-45.3727 -5.7605,-4.2236 -9.7795,-6.2805 -16.8139,-8.5992 -5.724,-1.8879 -6.8114,-2.0758 -13.2512,-2.2921 -5.3966,-0.1803 -8.0572,-0.0227 -11.5313,0.6834"
       style="fill:#ffffff;fill-opacity:1;fill-rule:nonzero;stroke:none"
       id="path1959"
       inkscape:connector-curvature="0" /><path
       d="M 303.196,261.1565 H 89.4603 V 474.8924 H 303.196 Z"
       style="fill:none;stroke:#1a1a18;stroke-width:8.50389957;stroke-linecap:butt;stroke-linejoin:miter;stroke-miterlimit:10.00000191;stroke-dasharray:none;stroke-opacity:1"
       id="path1961"
       inkscape:connector-curvature="0" /><path
       d="m 115.0801,261.1562 h 173.806"
       style="fill:#000000;stroke:#ffffff;stroke-width:8.78709984;stroke-linecap:butt;stroke-linejoin:miter;stroke-miterlimit:10.00000191;stroke-dasharray:none;stroke-opacity:1"
       id="path1963"
       inkscape:connector-curvature="0" /><g
       id="g945"
       style="fill:#ffffff"><path
         inkscape:connector-curvature="0"
         id="path1967"
         style="fill:#ffffff;fill-opacity:1;fill-rule:nonzero;stroke:none"
         d="M 361.5602,439.554 H 328.373 v -9.4424 h 11.5427 V 384.359 h 10.1032 v 45.7526 h 11.5413 z m 33.3337,-45.8311 h -19.4896 v 13.4725 h 12.2604 v 9.4437 h -12.2604 v 13.4725 h 19.4896 v 9.4424 h -23.0822 c -1.7479,0 -3.2706,-0.606 -4.5663,-1.8172 -1.2972,-1.2116 -1.9446,-2.6218 -1.9446,-4.2276 v -43.1445 c 0,-1.6333 0.6474,-3.0427 1.9446,-4.2278 1.2957,-1.1849 2.8184,-1.7779 4.5663,-1.7779 h 23.0822 z m 39.801,45.8311 h -10.1035 v -29.9874 l -10.6535,24.2187 c -1.6906,3.8457 -3.7902,5.7687 -6.2991,5.7687 -1.6345,0 -3.0719,-0.6182 -4.3124,-1.8575 -1.2124,-1.2107 -1.8173,-2.6067 -1.8173,-4.1873 V 384.359 h 10.1033 v 29.908 l 10.6962,-24.1789 c 1.6903,-3.8203 3.7769,-5.7291 6.2567,-5.7291 1.6914,0 3.128,0.6049 4.3117,1.8178 1.2113,1.2113 1.8179,2.6068 1.8179,4.1879 z m 39.8438,0 h -10.103 v -29.9874 l -10.6534,24.2187 c -1.6917,3.8457 -3.7917,5.7687 -6.2989,5.7687 -1.6362,0 -3.0725,-0.6182 -4.3121,-1.8575 -1.2129,-1.2107 -1.819,-2.6067 -1.819,-4.1873 V 384.359 h 10.1044 v 29.908 l 10.696,-24.1789 c 1.6903,-3.8203 3.7757,-5.7291 6.2566,-5.7291 1.6906,0 3.1286,0.6049 4.3127,1.8178 1.2106,1.2113 1.8167,2.6068 1.8167,4.1879 z m 16.761,0 h -10.1033 v -55.195 h 10.1033 z m 34.9834,-4.8996 c -3.2127,3.2663 -7.1322,4.8996 -11.7527,4.8996 -4.4254,0 -8.301,-1.555 -11.6257,-4.6618 -3.3262,-3.0824 -4.9896,-6.6909 -4.9896,-10.8255 v -1.3448 c 0,-4.1349 1.6634,-7.7564 4.9896,-10.8646 3.3247,-3.1079 7.2003,-4.6619 11.6257,-4.6619 1.6617,0 3.1558,-0.6188 4.4802,-1.8564 1.3249,-1.2387 1.9882,-2.6345 1.9882,-4.1887 0,-1.95 -0.5505,-3.634 -1.6498,-5.0573 -1.2396,-1.5806 -2.8471,-2.3701 -4.8186,-2.3701 -1.8881,0 -3.4248,0.7115 -4.6085,2.134 -1.0715,1.2373 -1.7329,2.7785 -1.9866,4.6224 h -10.0202 c 0.1134,-4.3458 1.734,-8.0997 4.8626,-11.2615 3.2131,-3.2388 7.1294,-4.8588 11.7527,-4.8588 4.3968,0 8.2571,1.5278 11.5832,4.5824 3.3254,3.0822 4.9887,6.6904 4.9887,10.8264 v 1.3825 c 0,4.1351 -1.6633,7.7439 -4.9887,10.826 -3.2972,3.1074 -7.1589,4.6628 -11.5832,4.6628 -1.692,0 -3.1992,0.6185 -4.5238,1.8558 -1.3243,1.2387 -1.9865,2.6473 -1.9865,4.227 0,1.9236 0.591,3.6355 1.775,5.1367 1.1838,1.5023 2.7624,2.253 4.7353,2.253 1.8315,0 3.3676,-0.7121 4.6075,-2.134 1.0992,-1.2642 1.7478,-2.7918 1.9442,-4.583 h 10.0202 c -0.142,4.3458 -1.7481,8.0991 -4.8192,11.2598 z m 41.7881,4.8996 h -33.186 v -9.4424 h 11.5412 V 384.359 h 10.1038 v 45.7526 h 11.541 z m 25.5283,-5.8467 c -1.2124,3.8971 -3.4957,5.8467 -6.8494,5.8467 -3.3823,0 -5.6645,-1.9496 -6.8479,-5.8467 L 565.1056,384.359 h 10.4414 l 3.678,12.05 h 15.0077 l 3.6366,-12.05 h 10.5264 z m -11.541,-27.8558 4.6916,15.5673 4.693,-15.5673 z m 52.8233,33.7025 -11.118,-37.1392 -11.2042,37.1392 h -10.4417 l 14.7965,-49.4268 c 1.1838,-3.8463 3.4668,-5.7682 6.8494,-5.7682 3.3247,0 5.608,1.9219 6.8479,5.7682 l 14.7966,49.4268 z m 95.0454,-45.8311 h -19.4896 v 45.8311 h -10.1038 v -49.1893 c 0,-1.6333 0.6477,-3.0427 1.9448,-4.2278 1.296,-1.1849 2.8185,-1.7779 4.5664,-1.7779 h 23.0822 z" /><path
         inkscape:connector-curvature="0"
         id="path1969"
         style="fill:#ffffff;fill-opacity:1;fill-rule:nonzero;stroke:none"
         d="m 669.1941,394.2876 c 4.9887,0 9.5051,2.0228 12.7732,5.2897 3.2678,3.2689 5.2897,7.7851 5.2897,12.7738 0,4.9878 -2.0219,9.5043 -5.29,12.7726 -3.2681,3.2678 -7.7848,5.2903 -12.7729,5.2903 -4.9887,0 -9.5049,-2.0225 -12.7729,-5.2897 -3.2687,-3.2692 -5.2903,-7.7854 -5.2903,-12.7732 0,-4.9887 2.0219,-9.5049 5.29,-12.7738 3.268,-3.2669 7.7845,-5.2897 12.7732,-5.2897 z m 19.3742,-1.3107 c -4.9586,-4.9578 -11.8086,-8.0255 -19.3742,-8.0255 -7.5657,0 -14.4162,3.0677 -19.3743,8.0255 -4.958,4.9583 -8.0254,11.8082 -8.0254,19.3742 0,7.5642 3.0674,14.415 8.026,19.3739 4.9584,4.9578 11.808,8.0255 19.3737,8.0255 7.5654,0 14.4156,-3.0677 19.3736,-8.0257 4.9587,-4.9587 8.0258,-11.8095 8.0258,-19.3737 0,-7.566 -3.0671,-14.4159 -8.0252,-19.3742" /><path
         inkscape:connector-curvature="0"
         id="path1971"
         style="fill:#ffffff;fill-opacity:1;fill-rule:nonzero;stroke:none"
         d="m 759.291,394.2876 c 4.9884,0 9.5052,2.0228 12.7732,5.2897 3.2678,3.2689 5.2898,7.7851 5.2898,12.7738 0,4.9878 -2.0217,9.504 -5.2903,12.7732 -3.2678,3.2672 -7.7846,5.2897 -12.7727,5.2897 -4.9884,0 -9.5045,-2.0225 -12.7726,-5.2903 -3.2684,-3.2683 -5.2903,-7.7848 -5.2903,-12.7726 0,-4.9887 2.0219,-9.5049 5.2897,-12.7738 3.2684,-3.2669 7.7845,-5.2897 12.7732,-5.2897 z m 19.374,-1.3107 c -4.9584,-4.9578 -11.8083,-8.0255 -19.374,-8.0255 -7.5654,0 -14.4159,3.0677 -19.3739,8.0255 -4.9581,4.9583 -8.0255,11.8082 -8.0255,19.3742 0,7.5642 3.0674,14.415 8.0258,19.3737 4.9586,4.958 11.8082,8.0257 19.3736,8.0257 7.5654,0 14.4153,-3.0677 19.3734,-8.0255 4.9589,-4.9589 8.0257,-11.8097 8.0257,-19.3739 0,-7.566 -3.0668,-14.4159 -8.0251,-19.3742" /></g><g
       id="g949"
       style="fill:#ffffff"><path
         inkscape:connector-curvature="0"
         id="path1965"
         style="fill:#ffffff;fill-opacity:1;fill-rule:nonzero;stroke:none"
         d="m 418.934,345.3789 c 0,3.1757 -1.1526,5.8785 -3.4569,8.1077 -2.1104,1.8493 -4.3333,2.7737 -6.6702,2.7737 -4.4141,0 -7.9047,-3.4385 -10.4678,-10.3119 l -21.9585,-59.6679 -22.0077,59.6679 c -2.5307,6.8734 -6.0213,10.3119 -10.468,10.3119 -2.3369,0 -4.544,-0.9244 -6.6212,-2.7737 -2.3371,-2.2292 -3.5062,-4.932 -3.5062,-8.1077 v -88.4696 h 16.6031 v 51.4179 l 15.2884,-41.2489 c 2.5965,-6.781 6.1671,-10.169 10.7116,-10.169 4.5119,0 8.066,3.388 10.6628,10.169 l 15.2883,41.2489 v -51.4179 h 16.6023 z m 146.4471,-46.2268 c 5.9718,2.0378 11.1331,5.4289 15.4837,10.1704 5.4851,5.8314 8.2276,12.5872 8.2276,20.2683 0,8.2023 -3.4407,14.9108 -10.321,20.1265 -5.779,4.3608 -11.7669,6.543 -17.966,6.543 h -19.9142 c -2.4999,0 -4.8367,-0.8777 -7.0112,-2.6314 -2.5319,-2.2301 -3.7981,-4.9785 -3.7981,-8.25 v -88.4696 h 16.6028 v 82.3536 h 14.1207 c 2.5308,0 4.9817,-0.8774 7.3509,-2.6314 2.8567,-2.1813 4.2845,-4.9312 4.2845,-8.25 0,-4.9785 -3.6184,-9.269 -10.8572,-12.8718 -2.7913,-1.3754 -4.9499,-2.4534 -6.4747,-3.2363 -1.5264,-0.7818 -2.419,-1.2929 -2.6778,-1.5291 -3.2792,-2.5596 -4.9184,-6.2832 -4.9184,-11.1651 0,-2.5132 1.0542,-5.4521 3.1654,-8.8188 9.8022,-15.2198 17.2352,-26.5031 22.2996,-33.8511 h 19.6685 z m 83.1855,-25.3891 h -33.6432 v 24.2512 h 21.1787 v 16.9971 h -21.1787 v 24.2516 h 33.6432 v 16.9974 h -39.4381 c -2.4999,0 -4.8362,-0.8777 -7.0109,-2.6314 -2.5308,-2.2301 -3.797,-4.9785 -3.797,-8.25 v -77.6608 c 0,-3.3664 1.2662,-6.1398 3.797,-8.3205 2.207,-1.66 4.5445,-2.4883 7.0109,-2.4883 h 39.4381 z m 60.0577,0 h -33.6436 v 82.4973 h -16.6028 v -88.5422 c 0,-3.3664 1.266,-6.1398 3.7979,-8.3205 2.207,-1.66 4.5439,-2.4883 7.0115,-2.4883 h 39.437 z m 56.9911,-0.2427 h -33.6436 v 81.2274 H 715.369 V 267.569 c 0,-3.3154 1.2663,-6.0466 3.7979,-8.1921 2.2059,-1.6353 4.5439,-2.4517 7.0112,-2.4517 h 39.4373 z m 23.3464,81.2274 H 772.359 v -97.8225 h 16.6028 z" /><path
         inkscape:connector-curvature="0"
         id="path1973"
         style="fill:#ffffff;fill-opacity:1;fill-rule:nonzero;stroke:none"
         d="m 474.5083,274.0017 c 8.9737,0 17.0975,3.6374 22.9768,9.5162 5.8794,5.8793 9.5162,14.0034 9.5162,22.977 0,8.974 -3.6368,17.0983 -9.5164,22.9782 -5.8791,5.8794 -14.0029,9.5162 -22.9766,9.5162 -8.9736,0 -17.0974,-3.6368 -22.9765,-9.5162 -5.8796,-5.8799 -9.517,-14.0042 -9.517,-22.9782 0,-8.9736 3.6377,-17.0977 9.5162,-22.9765 5.8799,-5.8793 14.0037,-9.5167 22.9773,-9.5167 z m 36.1795,-3.6862 c -9.26,-9.2597 -22.0516,-14.9871 -36.1795,-14.9871 -14.1278,0 -26.92,5.7274 -36.1797,14.9871 -9.2593,9.2599 -14.9867,22.0516 -14.9867,36.1794 0,14.1288 5.7274,26.9207 14.9873,36.1803 9.2591,9.2597 22.0513,14.9876 36.1791,14.9876 14.1279,0 26.9195,-5.7279 36.1792,-14.9876 9.2596,-9.2596 14.9873,-22.0515 14.9873,-36.1803 0,-14.1278 -5.7277,-26.9195 -14.987,-36.1794" /></g><path
       style="fill:#000000;stroke-width:0.96161634"
       d="m 188.47304,450.75834 c 14.14778,-0.14987 37.29869,-0.14987 51.44647,0 14.14778,0.14988 2.57232,0.2725 -25.72324,0.2725 -28.29556,0 -39.87101,-0.12262 -25.72323,-0.2725 z"
       id="path921"
       inkscape:connector-curvature="0"
       transform="matrix(0.75000002,0,0,-0.75000002,0,595.00012)" /><path
       style="fill:#000000;stroke-width:0.96161634"
       d="M 114.4761,302.90916 V 155.30105 h 147.60811 147.6081 v 147.60811 147.6081 h -12.0202 -12.0202 v -5.28889 -5.28889 h 6.73459 6.73459 L 398.87741,302.66875 398.63373,165.39802 H 261.6034 124.57308 l -0.24369,137.27073 -0.24369,137.27073 h 14.42753 14.42753 v 5.28889 5.28889 H 133.70843 114.4761 Z"
       id="path951"
       inkscape:connector-curvature="0"
       transform="matrix(0.75000002,0,0,-0.75000002,0,595.00012)" /><path
       style="fill:#000000;stroke-width:0.96161634"
       d="m 153.90237,445.22837 v -5.28889 h 115.39396 115.39396 v 5.28889 5.28889 H 269.29633 153.90237 Z"
       id="path953"
       inkscape:connector-curvature="0"
       transform="matrix(0.75000002,0,0,-0.75000002,0,595.00012)" /><path
       style="fill:#ffffff;stroke-width:0.96161634"
       d="M 114.4761,302.90916 V 155.30105 h 147.60811 147.6081 v 147.60811 147.6081 h -12.0202 -12.0202 v -5.28889 -5.28889 h 6.73459 6.73459 L 398.87741,302.66875 398.63373,165.39802 H 261.6034 124.57308 l -0.24369,137.27073 -0.24369,137.27073 h 14.42753 14.42753 v 5.28889 5.28889 H 133.70843 114.4761 Z"
       id="path955"
       inkscape:connector-curvature="0"
       transform="matrix(0.75000002,0,0,-0.75000002,0,595.00012)" /></g></svg>